# xmcd CD database file
# Copyright (C) 1993-1998 Ti Kan
#
# Track frame offsets:
# 182
# 12945
# 24797
# 37427
# 49542
# 64175
# 76905
# 88860
# 102722
# 116035
#
# Disc length: 1727 seconds
#
# Revision: 0
# Processed by: cddbd v1.4b41PL1 Copyright (c) Steve Scherf et al.
# Submitted via: inCDius 1.1b7
#
DISCID=8006bd0a
DTITLE=Singing Cowboy Stars - The Guys, The Gals, The Sidekicks
DYEAR=1900
DGENRE=
TTITLE0=Gene Autry - Back in the Saddle Again
TTITLE1=Patsy Montana - I Want to be a Cowboy's Sweetheart
TTITLE2=Tex Ritter - Jingle Jangle Jingle
TTITLE3=Sons of the Pioneers - Tumbling Tumbleweeds
TTITLE4=John "Dusty" King and His Range Busters - Deep in the Heart of Texas
TTITLE5=Roy Rogers - Don't Fence Me In
TTITLE6=Jimmy Wakely - Carry Me Back to the Lone Prairie
TTITLE7=Rex Allen - Don't Go Near the Indians
TTITLE8=Eddie Dean - Banks of the Old Rio Grande
TTITLE9=Dale Evans and Roy Rogers - Happy Trails
EXTD=Book by same name\nby Robert W. Phillips, includes this CD.\n© 1994, Publ
EXTD=ished by Peregrine Smith Book\t
EXTT0=
EXTT1=
EXTT2=
EXTT3=
EXTT4=
EXTT5=
EXTT6=
EXTT7=
EXTT8=
EXTT9=
PLAYORDER=
